<svg xmlns="http://www.w3.org/2000/svg" viewBox="0 0 1440 900" preserveAspectRatio="xMidYMid slice" overflow="hidden" aria-hidden="true">
  <defs>
    <linearGradient id="g1" x1="0" y1="0" x2="1" y2="1">
      <stop offset="0%"   stop-color="#C9E4CF" stop-opacity=".75"/>
      <stop offset="100%" stop-color="#E7F2EA" stop-opacity=".55"/>
    </linearGradient>
    <linearGradient id="g2" x1="1" y1="0" x2="0" y2="1">
      <stop offset="0%"   stop-color="#D8EADB" stop-opacity=".7"/>
      <stop offset="100%" stop-color="#EEF6F0" stop-opacity=".5"/>
    </linearGradient>
  </defs>
  <!-- Top-right large blob -->
  <path d="M1440 0 L1440 360 C1310 380,1190 320,1080 270 C970 220,880 210,800 170
           C720 130,700 50,790 0 Z" fill="url(#g1)"/>
  <!-- Top-right inner blob -->
  <path d="M1440 0 L1440 190 C1360 210,1280 170,1220 130
           C1160 90,1140 40,1180 0 Z" fill="#B7D8BE" opacity=".35"/>
  <!-- Top-left blob -->
  <path d="M0 0 L260 0 C230 70,160 100,90 85 C40 75,10 45,0 90 Z"
        fill="url(#g2)"/>
  <!-- Bottom-left blob -->
  <path d="M0 900 L0 700 C60 680,140 700,220 740
           C300 780,340 830,320 900 Z" fill="#DCEEDF" opacity=".55"/>
  <!-- Bottom-right blob -->
  <path d="M1440 900 L1440 680 C1340 660,1230 700,1140 760
           C1070 810,1060 870,1100 900 Z" fill="#DCEEDF" opacity=".55"/>
</svg>
