<svg xmlns="http://www.w3.org/2000/svg" viewBox="0 0 200 160" fill="none">
  <path d="M 150 110 C 150 116, 154 120, 160 120 C 154 120, 150 124, 150 130
           C 150 124, 146 120, 140 120 C 146 120, 150 116, 150 110 Z"
        fill="#E8B866" opacity=".8"/>
  <path d="M 120 75 C 120 79, 122 81, 126 81 C 122 81, 120 83, 120 87
           C 120 83, 118 81, 114 81 C 118 81, 120 79, 120 75 Z"
        fill="#E8B866" opacity=".65"/>
  <path d="M 170 55 C 170 58, 172 60, 175 60 C 172 60, 170 62, 170 65
           C 170 62, 168 60, 165 60 C 168 60, 170 58, 170 55 Z"
        fill="#E8B866" opacity=".7"/>
</svg>
