<svg xmlns="http://www.w3.org/2000/svg" viewBox="0 0 200 160" fill="none">
  <path d="M 50 110 C 50 116, 54 120, 60 120 C 54 120, 50 124, 50 130
           C 50 124, 46 120, 40 120 C 46 120, 50 116, 50 110 Z"
        fill="#E8B866" opacity=".75"/>
  <path d="M 80 80 C 80 84, 82 86, 86 86 C 82 86, 80 88, 80 92
           C 80 88, 78 86, 74 86 C 78 86, 80 84, 80 80 Z"
        fill="#E8B866" opacity=".65"/>
  <path d="M 30 60 C 30 63, 32 65, 35 65 C 32 65, 30 67, 30 70
           C 30 67, 28 65, 25 65 C 28 65, 30 63, 30 60 Z"
        fill="#E8B866" opacity=".7"/>
</svg>
