<svg xmlns="http://www.w3.org/2000/svg" viewBox="0 0 80 80" fill="none" aria-hidden="true">
  <path d="M28 32 C28 20,52 20,52 32"
        stroke="#7FBF8F" stroke-width="3.5" stroke-linecap="round"/>
  <path d="M18 30 L62 30 C66 30,68 33,68 37 L66 66
           C66 70,63 72,59 72 L21 72 C17 72,14 70,14 66 L12 37
           C12 33,14 30,18 30 Z"
        fill="#B7D8BE" stroke="#7FBF8F" stroke-width="3"/>
  <path d="M28 30 L52 30 L52 44 C52 47,49 50,46 50
           L34 50 C31 50,28 47,28 44 Z"
        fill="#E7F2EA" stroke="#7FBF8F" stroke-width="2.5"/>
  <circle cx="40" cy="48" r="2.5" fill="#7FBF8F"/>
</svg>
